<?xml version="1.0" encoding="utf-8"?>
<!-- Generator: Adobe Illustrator 24.1.0, SVG Export Plug-In . SVG Version: 6.00 Build 0)  -->
<svg version="1.1"
	 id="svg2" xmlns:cc="http://creativecommons.org/ns#" xmlns:dc="http://purl.org/dc/elements/1.1/" xmlns:inkscape="http://www.inkscape.org/namespaces/inkscape" xmlns:rdf="http://www.w3.org/1999/02/22-rdf-syntax-ns#" xmlns:svg="http://www.w3.org/2000/svg"
	 xmlns="http://www.w3.org/2000/svg" xmlns:xlink="http://www.w3.org/1999/xlink" x="0px" y="0px" viewBox="0 0 1771.7 436.1"
	 style="enable-background:new 0 0 1771.7 436.1;" xml:space="preserve">
<style type="text/css">
	.st0{fill:#909090;}
</style>
<g id="g10" transform="matrix(1.25,0,0,-1.25,0,316.65)">
	<g id="g12" transform="scale(0.1,0.1)">
		<path id="path14" inkscape:connector-curvature="0" class="st0" d="M11999.7-144.2c183.8,0,333.4,154.9,333.4,346.6
			c0,194.3-149.6,349.2-333.4,349.2c-183.8,0-333.4-154.9-333.4-349.2C11666.3,10.7,11818.5-144.2,11999.7-144.2z M11472,724.8
			c141.7,141.8,328.1,220.5,519.8,220.5c204.8,0,380.7-70.9,522.5-204.8c149.6-141.8,231.1-336.1,231.1-527.7
			c0-212.7-70.9-388.6-212.7-530.4c-144.4-144.4-323-220.5-535.6-220.5c-215.3,0-388.6,73.5-533,225.8
			c-136.6,141.8-207.4,323-207.4,519.8C11256.7,404.5,11332.8,585.7,11472,724.8"/>
		<path id="path16" inkscape:connector-curvature="0" class="st0" d="M8960.3-144.2c183.8,0,333.4,154.9,333.4,346.6
			c0,194.3-149.7,349.2-333.4,349.2s-333.4-154.9-333.4-349.2C8626.8,10.7,8779.1-144.2,8960.3-144.2z M8432.5,724.8
			c141.8,141.8,328.2,220.5,519.8,220.5c204.8,0,380.7-70.9,522.5-204.8c149.7-141.8,231.1-336.1,231.1-527.7
			c0-212.7-70.9-388.6-212.7-530.4c-144.4-144.4-323-220.5-535.6-220.5c-215.3,0-388.6,73.5-533,225.8
			c-136.5,141.8-207.4,323-207.4,519.8C8217.2,404.5,8293.4,585.7,8432.5,724.8"/>
		<path id="path18" inkscape:connector-curvature="0" class="st0" d="M3919.7-498.6h412.2v1952.9l-412.2-86L3919.7-498.6"/>
		<path id="path20" inkscape:connector-curvature="0" class="st0" d="M3290.4-498.4h412.2V911.5h-412.2V-498.4z"/>
		<path id="path22" inkscape:connector-curvature="0" class="st0" d="M3496.5,1577.9c-139.7,0-252.9-113.2-252.9-252.9
			s113.2-252.9,252.9-252.9c139.7,0,252.9,113.2,252.9,252.9S3636.1,1577.9,3496.5,1577.9"/>
		<path id="path24" inkscape:connector-curvature="0" class="st0" d="M5189.1,89.7l-265.2,821.8h-459.5l517.2-1323.3l-200.4-543.5
			h417.5l736,1866.7h-446.4L5189.1,89.7"/>
		<path id="path26" inkscape:connector-curvature="0" class="st0" d="M779.8-127c-212.7,0-364.9,149.7-364.9,346.6
			c0,189,152.3,349.2,349.2,349.2c194.3,0,343.9-152.3,343.9-354.4C1108,20,958.3-127,779.8-127z M1396.6,211.9
			c0,155.6,37.8,301.5,110.5,431.7v814.5l-414.8-85.9V757.8c-94.5,120.8-225.8,178.5-396.5,178.5c-178.5,0-338.7-65.6-470-194.3
			C78.8,600.3,0,419.1,0,216.9c0-220.5,84-409.6,246.8-554c123.4-110.3,270.4-165.4,441.1-165.4c168,0,294.1,44.6,417.5,165.4
			v-157.5H1507v266.9C1434.7-96.5,1396.6,51.5,1396.6,211.9"/>
		<path id="path28" inkscape:connector-curvature="0" class="st0" d="M8138.5,601.4c-17.5,75.2-47.2,134.7-92.3,187.4
			c-78.4,91.6-188.8,134.8-321.7,146.2c-108,9.3-201.1-4.6-290.8-51.9c-97.1-51.3-207.4-171.1-207.4-171.1s-109.6,225.8-383.7,225.8
			c-193.5,0-311.5-82.1-390.8-215.3v189h-375.4V-498.4h393.8v742.3c0,154.5,36,307.8,244.5,307.8c179.9,0,193.9-146.5,193.9-268.2
			v-781.9h407v747.1c0,238.1,103.5,302.9,246.1,302.9c115.1,0,192.3-52,192.3-268.2v-781.9h404.3v268.7
			C8086.1-97.3,8048,51.4,8048,210.5C8048,348.1,8079.8,480.7,8138.5,601.4"/>
		<path id="path30" inkscape:connector-curvature="0" class="st0" d="M10382.7,1454.3l-420.1-86v-464h-178.5V496.2h178.5v-994.7
			h420.1v994.7h186.4v408.1h-186.4V1454.3"/>
		<path id="path32" inkscape:connector-curvature="0" class="st0" d="M10957.4,1072.1c139.7,0,252.9,113.2,252.9,252.9
			s-113.2,252.9-252.9,252.9s-252.9-113.2-252.9-252.9S10817.7,1072.1,10957.4,1072.1"/>
		<path id="path34" inkscape:connector-curvature="0" class="st0" d="M11163.5,568.3v343.2h-412.2V-498.4h412.2v336.3
			c-49.7,114.1-76.1,238.3-76.1,369.7C11087.4,333.7,11114,455.8,11163.5,568.3"/>
		<path id="path36" inkscape:connector-curvature="0" class="st0" d="M13692.8,937.7c-186.5,0-317.7-73.5-404.4-215.3l5.3,189
			h-393.9V-498.4h407v764c0,189,86.6,286.2,249.4,286.2c160.2,0,202.2-89.3,202.2-286.2v-764h414.8V431
			C14173.2,753.9,13984.2,937.7,13692.8,937.7"/>
		<path id="path38" inkscape:connector-curvature="0" class="st0" d="M2345.7-130.9c178.5,0,328.2,147.1,328.2,341.3
			c0,202.2-149.7,354.4-343.9,354.4c-196.9,0-349.2-160.1-349.2-349.2C1980.7,18.8,2133-130.9,2345.7-130.9z M2671.2-340.9
			c-123.4-120.8-249.4-165.4-417.4-165.4c-170.7,0-317.7,55.2-441.1,165.4c-162.8,144.5-246.8,333.5-246.8,554
			c0,202.1,78.8,383.3,225.8,525.1c131.3,128.7,291.4,194.3,470,194.3c170.6,0,301.9-57.7,396.4-178.6v157.6h414.8V-498.4h-401.7
			V-340.9"/>
	</g>
</g>
</svg>
