<?xml version="1.0" encoding="utf-8"?>
<!-- Generator: Adobe Illustrator 24.1.0, SVG Export Plug-In . SVG Version: 6.00 Build 0)  -->
<svg version="1.1" id="svg2" xmlns:svg="http://www.w3.org/2000/svg"
	 xmlns="http://www.w3.org/2000/svg" xmlns:xlink="http://www.w3.org/1999/xlink" x="0px" y="0px" viewBox="0 0 70 20"
	 style="enable-background:new 0 0 70 20;" xml:space="preserve">
<style type="text/css">
	.st0{fill:#909090;}
</style>
<path id="path4" class="st0" d="M15.8,6.4c-0.1,1.5-1.1,3.6-3.2,6.2c-2.1,2.7-3.9,4.1-5.4,4.1c-0.9,0-1.7-0.8-2.3-2.5
	c-0.4-1.5-0.8-3.1-1.3-4.6c-0.5-1.7-1-2.5-1.5-2.5C2.1,7.1,1.7,7.3,1,7.8L0.2,6.9c0.8-0.7,1.5-1.3,2.3-2c1-0.9,1.8-1.4,2.3-1.4
	C6,3.3,6.8,4.1,7,5.9C7.3,7.8,7.6,9,7.7,9.5c0.3,1.6,0.7,2.4,1.2,2.4c0.3,0,0.8-0.5,1.5-1.5c0.7-1,1-1.8,1-2.3
	c0.1-0.9-0.3-1.3-1-1.3c-0.4,0-0.8,0.1-1.2,0.3c0.8-2.5,2.2-3.7,4.4-3.7C15.1,3.3,15.9,4.3,15.8,6.4"/>
<path id="path6" class="st0" d="M25.4,11.3c-0.7,1.2-1.5,2.3-2.7,3.3c-1.6,1.3-3.1,2-4.7,2c-0.7,0-1.3-0.2-1.7-0.7
	c-0.4-0.5-0.6-1.1-0.5-1.8c0-0.8,0.3-2,0.7-3.6C17,9,17.2,8.1,17.2,8c0-0.6-0.2-0.9-0.6-0.9c-0.1,0-0.5,0.2-1.2,0.7l-0.8-0.9
	c0.7-0.7,1.5-1.3,2.2-2c1-0.9,1.7-1.3,2.2-1.4c0.8-0.1,1.3,0.2,1.7,0.7c0.4,0.5,0.5,1.2,0.4,2c-0.3,1.4-0.6,3.2-1,5.4
	c0,1,0.3,1.5,1.1,1.5c0.3,0,0.9-0.3,1.7-1c0.7-0.6,1.3-1.1,1.7-1.6L25.4,11.3"/>
<path id="path8" class="st0" d="M47.2,11.3c-0.7,1.2-1.5,2.3-2.7,3.3c-1.6,1.3-3.1,2-4.7,2c-1.5,0-2.2-0.8-2.2-2.5
	c0-0.7,0.2-1.6,0.4-2.7c0.3-1,0.4-1.9,0.4-2.4c0-0.9-0.2-1.3-0.8-1.3c-0.6,0-1.3,0.7-2.2,2.2c-0.9,1.5-1.4,3-1.4,4.4
	c0,1,0,1.8,0.3,2.3c-1.6,0-2.8-0.2-3.4-0.8c-0.6-0.5-0.8-1.4-0.8-2.5c0-0.7,0.1-1.5,0.3-2.2c0.2-0.7,0.3-1.4,0.3-2
	c0-0.9-0.3-1.3-0.9-1.3c-0.6,0-1.2,0.7-1.9,2c-0.7,1.3-1,2.7-1.1,4.2c0,1.3,0,2.2,0.2,2.7c-1.6,0-2.7-0.3-3.4-1
	c-0.6-0.6-0.8-1.5-0.8-2.8c0-0.6,0.1-1.4,0.3-2.5c0.2-1.1,0.3-1.9,0.3-2.5c0-0.4-0.1-0.6-0.3-0.6c-0.1,0-0.5,0.2-1.2,0.7l-0.8-0.9
	c0.1-0.1,0.8-0.8,2.2-2c1-0.9,1.6-1.4,2-1.4c0.6,0,1.1,0.2,1.5,0.8c0.4,0.5,0.6,1.2,0.6,1.9c0,0.2,0,0.5-0.1,0.7
	c0.3-0.5,0.8-1,1.2-1.4c1.1-0.9,2.3-1.5,3.6-1.6c1.1-0.1,2,0.2,2.4,0.8c0.4,0.5,0.6,1.2,0.6,2.2c0.2-0.1,0.3-0.3,0.5-0.5
	c0.5-0.6,1.1-1.1,1.6-1.5c0.9-0.6,1.8-1,2.7-1c1.1-0.1,1.9,0.2,2.4,0.8C42.9,5.1,43,5.8,43,6.8c0,0.6-0.2,1.6-0.5,2.8
	c-0.3,1.2-0.4,2-0.4,2.1c0,0.5,0,0.8,0.1,1c0.1,0.2,0.4,0.3,0.8,0.3c0.3,0,0.9-0.3,1.7-1c0.7-0.6,1.3-1.1,1.7-1.6L47.2,11.3"/>
<path id="path10" class="st0" d="M52.4,7.6c0-0.6-0.2-0.9-0.8-0.9c-0.7,0-1.4,0.5-2.1,1.4c-0.7,1-1.1,1.9-1.1,2.8c0,0,0,0.2,0,0.5
	c1.1-0.4,2.1-1.1,3-1.9C52,8.6,52.3,8,52.4,7.6z M60.3,11.2c-0.7,1.1-2,2.2-4,3.3c-2.5,1.4-5,2.1-7.5,2.1c-1.9,0-3.2-0.6-4.1-1.9
	c-0.6-0.9-0.9-1.9-0.8-3.1c0-1.9,0.9-3.7,2.5-5.4c1.8-1.9,4-2.8,6.4-2.8c2.3,0,3.5,0.9,3.6,2.8c0.1,1.2-0.6,2.4-2,3.7
	c-1.5,1.4-3.4,2.2-5.6,2.6c0.4,0.6,1,0.9,1.9,0.9c1.7,0,3.5-0.4,5.5-1.3c1.4-0.6,2.5-1.2,3.4-1.9L60.3,11.2"/>
<path id="path12" class="st0" d="M65.8,8.7c0-0.6-0.1-1.2-0.3-1.7c-0.2-0.5-0.5-0.8-0.9-0.8c-1.2,0-2.2,0.6-2.9,1.9
	c-0.7,1.1-1,2.2-1,3.4c0,0.6,0.1,1.1,0.3,1.5c0.3,0.5,0.6,0.8,1.1,0.8c1,0,1.9-0.6,2.7-1.9C65.4,10.9,65.8,9.9,65.8,8.7z M69.8,8.9
	c-0.1,2.1-0.9,4-2.4,5.5s-3.3,2.3-5.6,2.3c-1.8,0-3.2-0.6-4.2-1.8c-0.7-0.9-1.1-2-1.2-3.3c-0.1-2,0.6-3.8,2.2-5.5
	c1.7-1.9,3.8-2.8,6.3-2.8c1.6,0,2.9,0.5,3.7,1.6C69.5,6,69.8,7.3,69.8,8.9"/>
</svg>
